<?xml version="1.0" encoding="utf-8"?>
<!-- Generator: Adobe Illustrator 19.0.1, SVG Export Plug-In . SVG Version: 6.00 Build 0)  -->
<svg version="1.1" id="Layer_1" xmlns="http://www.w3.org/2000/svg" xmlns:xlink="http://www.w3.org/1999/xlink" x="0px" y="0px"
	 viewBox="0 0 32 32" style="enable-background:new 0 0 32 32;" xml:space="preserve">
<style type="text/css">
	.st0{fill:#FFFFFF;}
</style>
<g id="XMLID_80_">
	<path id="XMLID_78_" d="M16,32l9.2-16c0.9-1.6,1.4-3.4,1.4-5.3C26.7,4.8,21.9,0,16,0S5.3,4.8,5.3,10.7c0,1.9,0.5,3.8,1.4,5.3L16,32
		z"/>
	<polygon id="XMLID_77_" class="st0" points="20,16 18,15.3 17.3,13.3 18,10.7 17.3,6.7 17.3,4 15.3,4.7 14,6 12,8 12.7,9.3 
		15.3,7.3 15.3,9.3 14.7,10.7 15.3,13.3 15.3,14.7 13.3,14.7 12,16 12.7,17.3 14.7,18 17.3,18.7 20.7,18 	"/>
</g>
</svg>
